<svg width="20" height="14" viewBox="0 0 27 16" fill="currentColor" stroke="currentColor" stroke-width="0" xmlns="http://www.w3.org/2000/svg">
<path fill-rule="evenodd" clip-rule="evenodd" d="M0.814987 0.561064C0.814987 0.259557 1.05941 0.0151367 1.36091 0.0151367H4.97759C5.2791 0.0151367 5.52352 0.259557 5.52352 0.561064V5.75788L10.716 5.75788V0.561064C10.716 0.259557 10.9605 0.0151367 11.262 0.0151367H14.8787C15.1802 0.0151367 15.4246 0.259557 15.4246 0.561064V15.1067C15.4246 15.4082 15.1802 15.6526 14.8787 15.6526H11.262C10.9605 15.6526 10.716 15.4082 10.716 15.1067V9.90981H5.52352V15.1067C5.52352 15.4082 5.2791 15.6526 4.97759 15.6526H1.36091C1.05941 15.6526 0.814987 15.4082 0.814987 15.1067V0.561064Z" />
<path d="M20.5689 8.25319L18.3177 8.2735C18.0143 8.27624 17.7641 8.03007 17.7889 7.72766C17.9836 5.35547 19.4643 3.91595 22.0134 3.91595C24.7542 3.91595 26.3128 5.2487 26.3128 7.55994C26.3128 8.60075 25.8369 9.44683 24.6087 10.7128C24.0709 11.2673 23.4223 11.8943 23.1674 12.1063C22.9395 12.2959 22.8271 12.4671 22.8231 12.5648C22.8204 12.6296 22.9027 12.6431 22.9676 12.6432L25.8362 12.6469C26.1374 12.6473 26.3814 12.8916 26.3814 13.1928V15.1171C26.3814 15.4186 26.1375 15.6631 25.836 15.6631H18.309C18.0075 15.6631 17.7669 15.4186 17.7669 15.1171V13.211C17.7669 13.0606 17.8289 12.9169 17.9384 12.8137L21.1567 9.78061C22.6439 8.30161 22.8555 7.95807 22.8554 7.61886C22.8554 6.39801 21.1123 6.41556 21.1123 7.61886L21.1097 7.72115C21.1022 8.01525 20.8631 8.25054 20.5689 8.25319Z" />
</svg>
