<svg width="24" height="16" viewBox="0 0 24 16" fill="none" xmlns="http://www.w3.org/2000/svg">
<path d="M19.7185 7.41537L17.1132 8.92324C16.9844 8.99776 16.829 9.02529 16.7112 8.95129C16.6378 8.90516 16.6141 8.77937 16.6141 8.69249V6.38525C16.6141 6.04959 16.7187 5.8931 16.9156 5.77971L19.9077 4.04952C19.9591 4.01979 20.0144 4.00318 20.0699 3.99864C20.0819 3.99752 20.0941 3.99695 20.1064 3.99695H22.832C23.0462 3.99695 23.2199 4.17104 23.2199 4.38578V15.2654C23.2199 15.4801 23.0462 15.6542 22.832 15.6542H20.1064C19.8921 15.6542 19.7185 15.4801 19.7185 15.2654V7.41537Z" fill="#232323"/>
<path fill-rule="evenodd" clip-rule="evenodd" d="M0.462891 0.569357C0.462891 0.268191 0.707034 0.0240479 1.0082 0.0240479H4.62078C4.92195 0.0240479 5.16609 0.268191 5.16609 0.569357V5.76027L10.3528 5.76027V0.569371C10.3528 0.268205 10.5969 0.0240616 10.8981 0.0240616H14.5107C14.8118 0.0240616 15.056 0.268205 15.056 0.569371V15.0985C15.056 15.3997 14.8118 15.6438 14.5107 15.6438H10.8981C10.5969 15.6438 10.3528 15.3997 10.3528 15.0985V9.9075H5.16609V15.0985C5.16609 15.3997 4.92195 15.6438 4.62078 15.6438H1.0082C0.707034 15.6438 0.462891 15.3997 0.462891 15.0985V0.569357Z" fill="#232323"/>
</svg>
